<?xml version="1.0" standalone="no"?>
<!DOCTYPE svg PUBLIC "-//W3C//DTD SVG 20010904//EN"
 "http://www.w3.org/TR/2001/REC-SVG-20010904/DTD/svg10.dtd">
<svg version="1.0" xmlns="http://www.w3.org/2000/svg"
 width="900.000000pt" height="507.000000pt" viewBox="0 0 900.000000 507.000000"
 preserveAspectRatio="xMidYMid meet">
<metadata>
Created by potrace 1.10, written by Peter Selinger 2001-2011
</metadata>
<g transform="translate(0.000000,507.000000) scale(0.100000,-0.100000)"
fill="#000000" stroke="none">
<path d="M778 2971 c-139 -48 -215 -143 -212 -269 3 -128 80 -224 214 -264
109 -33 167 -48 184 -48 53 0 136 -75 136 -122 0 -29 -30 -82 -58 -103 -23
-17 -42 -20 -117 -19 -104 1 -147 19 -223 90 -53 50 -62 48 -117 -23 -43 -56
-43 -73 -6 -116 66 -75 212 -127 356 -127 149 0 252 47 317 145 32 49 33 52
33 161 0 93 -3 115 -17 131 -10 11 -18 24 -18 29 0 18 -64 70 -110 92 -56 25
-94 36 -195 57 -117 24 -162 49 -176 95 -14 47 -2 87 35 114 23 18 42 21 124
21 101 -1 133 -11 189 -59 17 -14 28 -17 42 -10 24 11 93 113 88 129 -8 20
-86 67 -144 88 -85 29 -249 33 -325 8z"/>
<path d="M1492 2968 c-19 -19 -17 -961 2 -977 9 -8 43 -11 93 -9 l78 3 3 180
c2 128 6 181 15 187 6 4 73 8 148 8 113 0 144 3 180 19 60 27 122 82 150 133
20 38 23 56 23 153 -1 101 -3 114 -28 157 -51 89 -120 130 -245 147 -116 15
-403 15 -419 -1z m394 -157 c23 -4 51 -17 62 -27 27 -25 52 -85 52 -124 0 -45
-34 -105 -74 -129 -31 -19 -47 -21 -143 -19 l-108 3 -3 140 c-1 76 0 145 2
152 6 15 143 18 212 4z"/>
<path d="M2392 2968 c-17 -17 -18 -958 0 -976 15 -15 122 -16 149 -2 18 10 19
24 19 315 0 267 2 305 15 305 9 0 17 -6 19 -12 2 -7 16 -49 30 -93 15 -44 31
-93 36 -110 4 -16 18 -55 30 -85 12 -30 25 -68 30 -85 11 -39 29 -91 46 -133
8 -18 14 -39 14 -46 0 -7 9 -25 21 -40 18 -23 27 -26 83 -26 81 0 97 18 136
155 4 17 14 46 21 65 21 60 36 104 51 145 26 71 40 109 48 140 5 17 14 46 21
65 6 19 13 41 15 48 2 6 10 12 19 12 13 0 15 -38 15 -305 0 -348 -7 -325 95
-325 104 0 95 -48 95 500 0 556 14 500 -124 500 -129 0 -124 4 -175 -140 -7
-19 -17 -48 -21 -65 -5 -16 -25 -75 -45 -130 -20 -55 -40 -113 -45 -130 -11
-40 -30 -93 -46 -133 -8 -18 -14 -40 -14 -49 0 -23 -40 -84 -51 -77 -5 3 -9
14 -9 24 0 11 -6 34 -14 52 -16 40 -35 93 -46 133 -5 17 -25 75 -45 130 -20
55 -40 114 -45 130 -16 58 -57 171 -78 215 l-17 35 -110 3 c-77 2 -114 -1
-123 -10z"/>
<path d="M3566 2973 c-10 -11 -7 -51 8 -85 17 -42 35 -94 46 -133 5 -16 14
-46 21 -65 6 -19 17 -51 24 -70 7 -19 18 -51 24 -70 7 -19 17 -48 21 -65 5
-16 39 -115 75 -220 37 -104 70 -206 75 -225 5 -19 17 -40 26 -47 19 -14 200
-18 221 -5 11 7 36 66 53 127 9 33 27 87 43 125 5 14 13 39 18 55 4 17 37 116
74 220 36 105 70 204 75 220 9 33 28 87 43 125 20 50 26 94 15 107 -7 9 -37
13 -88 13 -91 0 -93 -2 -129 -120 -13 -41 -29 -91 -36 -110 -7 -19 -21 -62
-30 -95 -10 -33 -24 -75 -31 -93 -8 -18 -14 -39 -14 -47 0 -8 -6 -29 -14 -47
-7 -18 -21 -60 -31 -93 -26 -88 -36 -113 -51 -126 -11 -9 -15 -8 -18 2 -31
106 -71 231 -82 257 -8 18 -14 39 -14 47 0 8 -6 29 -14 47 -8 18 -29 80 -46
138 -17 58 -38 120 -46 138 -8 18 -14 41 -14 52 0 34 -39 49 -122 49 -42 0
-79 -3 -82 -6z"/>
<path d="M4824 2955 c-15 -22 -74 -181 -94 -250 -8 -30 -20 -64 -46 -137 -8
-21 -20 -55 -28 -75 -26 -75 -38 -108 -46 -138 -5 -16 -25 -75 -45 -130 -20
-55 -40 -113 -44 -130 -5 -16 -14 -42 -21 -57 -23 -48 -10 -58 77 -58 85 0
123 16 123 50 0 11 6 34 14 52 7 18 20 53 28 78 l15 45 185 3 c141 2 187 -1
194 -10 6 -7 18 -40 28 -73 10 -33 26 -79 37 -102 l19 -43 84 0 c106 0 113 7
85 81 -11 30 -24 68 -29 85 -4 18 -11 37 -15 44 -4 7 -11 26 -16 44 -4 17 -24
76 -44 131 -20 55 -40 114 -45 130 -5 17 -25 75 -45 130 -20 55 -40 114 -45
130 -11 40 -30 93 -46 133 -8 18 -14 39 -14 47 0 31 -42 43 -147 44 -98 1
-103 0 -119 -24z m154 -253 c29 -105 40 -139 68 -212 8 -19 15 -51 16 -70 l3
-35 -114 -3 c-67 -1 -118 1 -124 7 -10 10 34 168 69 249 8 18 14 41 14 51 0
21 39 75 48 66 4 -3 12 -27 20 -53z"/>
<path d="M5567 2965 c-15 -15 -17 -50 -16 -328 0 -401 13 -476 94 -560 71 -73
167 -107 304 -107 159 0 272 45 336 133 60 84 60 78 60 492 l0 380 -65 3 c-35
2 -74 1 -87 -3 l-22 -5 -3 -343 c-3 -385 -4 -389 -81 -450 -35 -29 -42 -31
-130 -31 -105 0 -130 11 -178 78 l-29 39 0 341 c0 194 -4 347 -10 356 -14 23
-151 27 -173 5z"/>
<path d="M6622 2968 c-17 -17 -18 -958 0 -976 9 -9 93 -12 315 -12 l303 0 5
23 c4 13 5 50 3 82 l-3 60 -220 5 -220 5 -5 410 -5 410 -80 3 c-54 2 -84 -1
-93 -10z"/>
<path d="M7316 2973 c-3 -4 -6 -41 -6 -84 l0 -78 138 -3 137 -3 3 -400 c2
-362 4 -401 19 -412 23 -18 157 -17 172 0 7 10 12 139 13 413 l3 399 135 5
135 5 3 70 c2 57 0 72 -15 82 -13 11 -97 13 -374 13 -196 -1 -359 -4 -363 -7z"/>
<path d="M8223 2181 c-43 -31 -56 -66 -44 -125 13 -62 110 -96 177 -61 76 39
72 155 -8 196 -51 26 -78 24 -125 -10z"/>
</g>
</svg>
